# File created by Blade
# Date/Time:  Wed Apr 08 17:04:14 2015
#---------------------------------------------------------
:version 1.10
:name HOM
:units
  mass 1.0
  length 1.000000
  angle deg
:documentation
     Acclaim Skeleton File
:root
   axis xyz
   order TX TY TZ RX RY RZ
   position 0.000000 0.000000 0.000000
   orientation 0 0 0
:bonedata
   begin
      id 1
      name Spine_dum
      direction 0.000000 1.000000 0.000000
      length 5.893853
      axis 0.0 0.0 0.0 xyz
   end
   begin
      id 2
      name LeftUpLeg_dum
      direction 1.000000 0.000000 0.000000
      length 3.697939
      axis 0.0 0.0 0.0 xyz
   end
   begin
      id 3
      name RightUpLeg_dum
      direction -1.000000 0.000000 0.000000
      length 3.697939
      axis 0.0 0.0 0.0 xyz
   end
   begin
      id 4
      name Spine
      direction 0.000000 1.000000 0.000000
      length 0.000000
      axis 0.0 0.0 0.0 xyz
      dof rx ry rz
   end
   begin
      id 5
      name Spine_dum1
      direction 0.000000 1.000000 0.000000
      length 16.447146
      axis 0.0 0.0 0.0 xyz
   end
   begin
      id 6
      name Spine_dum2
      direction 0.000000 1.000000 0.000000
      length 10.900383
      axis 0.0 0.0 0.0 xyz
   end
   begin
      id 7
      name Spine_dum3
      direction 0.000000 1.000000 0.000000
      length 10.900383
      axis 0.0 0.0 0.0 xyz
   end
   begin
      id 8
      name Head
      direction 0.000000 1.000000 0.000000
      length 4.527550
      axis 0.0 0.0 0.0 xyz
      dof rx ry rz
   end
   begin
      id 9
      name LeftShoulder
      direction 1.000000 0.000000 0.000000
      length 8.219464
      axis 0.0 0.0 -90.0 xyz
      dof rx ry rz
   end
   begin
      id 10
      name LeftArm
      direction 1.000000 0.000000 0.000000
      length 11.094937
      axis 0.0 0.0 -90.0 xyz
      dof rx ry rz
   end
   begin
      id 11
      name LeftForeArm
      direction 1.000000 0.000000 0.000000
      length 9.103875
      axis 0.0 0.0 -90.0 xyz
      dof ry rz rx
   end
   begin
      id 12
      name LeftHand
      direction 0.000000 0.000000 0.000000
      length 0.000000
      axis 0.0 0.0 -90.0 xyz
      dof rx ry rz
   end
   begin
      id 13
      name LeftHand_dum1
      direction 0.000000 0.000000 0.000000
      length 0.000000
      axis 0.0 0.0 -90.0 xyz
   end
   begin
      id 14
      name LeftHand_dum2
      direction 1.000000 0.000000 0.000000
      length 3.937000
      axis 0.0 0.0 -90.0 xyz
   end
   begin
      id 15
      name LeftHandThumb1
      direction 0.000000 0.000000 1.000000
      length 3.937000
      axis 0.0 0.0 -90.0 xyz
      dof rx rz ry
   end
   begin
      id 16
      name RightShoulder
      direction -1.000000 0.000000 0.000000
      length 8.219464
      axis 0.0 0.0 90.0 xyz
      dof rx ry rz
   end
   begin
      id 17
      name RightArm
      direction -1.000000 0.000000 0.000000
      length 11.094937
      axis 0.0 0.0 90.0 xyz
      dof rx ry rz
   end
   begin
      id 18
      name RightForeArm
      direction -1.000000 0.000000 0.000000
      length 9.103875
      axis 0.0 0.0 90.0 xyz
      dof ry rz rx
   end
   begin
      id 19
      name RightHand
      direction 0.000000 0.000000 0.000000
      length 0.000000
      axis 0.0 0.0 90.0 xyz
      dof rx ry rz
   end
   begin
      id 20
      name RightHand_dum1
      direction 0.000000 0.000000 0.000000
      length 0.000000
      axis 0.0 0.0 90.0 xyz
   end
   begin
      id 21
      name RightHand_dum2
      direction -1.000000 0.000000 0.000000
      length 3.937000
      axis 0.0 0.0 90.0 xyz
   end
   begin
      id 22
      name RightHandThumb1
      direction 0.000000 0.000000 1.000000
      length 3.937000
      axis 0.0 0.0 90.0 xyz
      dof rx rz ry
   end
   begin
      id 23
      name LeftUpLeg
      direction 0.000000 -1.000000 0.000000
      length 16.181467
      axis 0.0 0.0 0.0 xyz
      dof rx ry rz
   end
   begin
      id 24
      name LeftLeg
      direction 0.000000 -1.000000 0.000000
      length 16.501392
      axis 0.0 0.0 0.0 xyz
      dof rx ry rz
   end
   begin
      id 25
      name LeftFoot
      direction 0.000000 -0.258819 0.965926
      length 6.408245
      axis 15.0 0.0 0.0 xyz
      dof rx ry rz
   end
   begin
      id 26
      name LeftToeBase
      direction 0.000000 0.000000 1.000000
      length 2.952750
      axis 0.0 0.0 0.0 xyz
      dof rx ry rz
   end
   begin
      id 27
      name RightUpLeg
      direction 0.000000 -1.000000 0.000000
      length 16.181467
      axis 0.0 0.0 0.0 xyz
      dof rx ry rz
   end
   begin
      id 28
      name RightLeg
      direction 0.000000 -1.000000 0.000000
      length 16.501392
      axis 0.0 0.0 0.0 xyz
      dof rx ry rz
   end
   begin
      id 29
      name RightFoot
      direction 0.000000 -0.258819 0.965926
      length 6.408245
      axis 15.0 0.0 0.0 xyz
      dof rx ry rz
   end
   begin
      id 30
      name RightToeBase
      direction 0.000000 0.000000 1.000000
      length 2.952750
      axis 0.0 0.0 0.0 xyz
      dof rx ry rz
   end
:hierarchy
   begin
      root Spine_dum LeftUpLeg_dum RightUpLeg_dum
      Spine_dum Spine
      LeftUpLeg_dum LeftUpLeg
      RightUpLeg_dum RightUpLeg
      Spine Spine_dum1 Spine_dum2 Spine_dum3
      Spine_dum1 Head
      Spine_dum2 LeftShoulder
      Spine_dum3 RightShoulder
      LeftShoulder LeftArm
      LeftArm LeftForeArm
      LeftForeArm LeftHand
      LeftHand LeftHand_dum1 LeftHand_dum2
      LeftHand_dum1 LeftHandThumb1
      RightShoulder RightArm
      RightArm RightForeArm
      RightForeArm RightHand
      RightHand RightHand_dum1 RightHand_dum2
      RightHand_dum1 RightHandThumb1
      LeftUpLeg LeftLeg
      LeftLeg LeftFoot
      LeftFoot LeftToeBase
      RightUpLeg RightLeg
      RightLeg RightFoot
      RightFoot RightToeBase
   end

# File created by Blade
# Date/Time:  Wed Apr 08 17:04:22 2015
# Frame Rate: 120.000 fps
#------------------------------------------------------
:FULLY-SPECIFIED
:DEGREES
501
root 3.408871 35.930696 4.114619 -147.620517 -76.488290 174.372714
Spine -27.916182 -16.351803 0.157394
Head 50.134960 -12.228261 -13.183256
LeftShoulder 15.588626 -7.902265 32.528974
LeftArm 105.488553 41.293052 -41.968182
LeftForeArm 10.685484 0.000000 92.272290
LeftHand -15.261918 -0.000000 -6.812888
LeftHandThumb1 -26.253704 0.000000 33.147579
RightShoulder -11.337299 -69.859771 -19.352985
RightArm 47.174938 -19.484294 15.522387
RightForeArm 36.095521 -0.000000 116.113768
RightHand -2.265750 -0.000000 37.959202
RightHandThumb1 -24.326973 -0.000000 -32.862282
LeftUpLeg -28.859838 12.954688 -4.952992
LeftLeg 18.163478 -0.000000 -0.000000
LeftFoot -18.281029 12.174867 -15.705249
LeftToeBase 8.816350 -0.000000 -0.000000
RightUpLeg -33.640709 -2.878615 -11.159904
RightLeg 16.992459 -0.000000 -0.000000
RightFoot -10.386296 3.985364 19.328082
RightToeBase 12.720219 -0.000000 -0.000000
502
root 3.409849 35.932250 4.115897 -147.516354 -76.598228 174.290630
Spine -27.975734 -16.316422 0.196494
Head 50.176526 -12.259030 -13.268844
LeftShoulder 15.589716 -7.929192 32.520859
LeftArm 105.358297 41.319874 -42.145624
LeftForeArm 10.721479 -0.000000 92.247954
LeftHand -15.184494 -0.000000 -7.042362
LeftHandThumb1 -26.253704 0.000000 33.147579
RightShoulder -11.176513 -69.737217 -19.555880
RightArm 47.086407 -19.006606 15.850559
RightForeArm 36.376032 -0.000000 116.095025
RightHand -2.207238 -0.000000 38.062711
RightHandThumb1 -24.326973 -0.000000 -32.862282
LeftUpLeg -28.905883 12.884097 -4.928475
LeftLeg 18.187219 -0.000000 -0.000000
LeftFoot -18.262356 12.132513 -15.718938
LeftToeBase 8.838578 -0.000000 -0.000000
RightUpLeg -33.629752 -2.963947 -11.125873
RightLeg 16.985225 -0.000000 -0.000000
RightFoot -10.398224 3.960459 19.313754
RightToeBase 12.717617 -0.000000 -0.000000
503
root 3.410442 35.933953 4.116513 -147.387940 -76.709669 174.188003
Spine -28.035101 -16.297189 0.225732
Head 50.229214 -12.314458 -13.326182
LeftShoulder 15.564940 -7.943900 32.528139
LeftArm 105.254108 41.299298 -42.274174
LeftForeArm 10.719582 0.000000 92.239308
LeftHand -15.147452 -0.000000 -7.155758
LeftHandThumb1 -26.253704 0.000000 33.147579
RightShoulder -11.035569 -69.655519 -19.703157
RightArm 46.948285 -18.463189 16.232789
RightForeArm 36.817134 0.000000 116.038135
RightHand -2.171172 -0.000000 38.025131
RightHandThumb1 -24.326973 -0.000000 -32.862282
LeftUpLeg -28.950837 12.800174 -4.905245
LeftLeg 18.201356 -0.000000 -0.000000
LeftFoot -18.230888 12.104338 -15.707678
LeftToeBase 8.809990 -0.000000 -0.000000
RightUpLeg -33.612117 -3.032904 -11.105119
RightLeg 16.960920 -0.000000 -0.000000
RightFoot -10.410961 3.924304 19.369182
RightToeBase 12.729143 -0.000000 -0.000000
504
root 3.413994 35.936134 4.116815 -147.236138 -76.803632 174.095035
Spine -28.116910 -16.242375 0.222912
Head 50.267654 -12.428351 -13.348049
LeftShoulder 15.555196 -7.984334 32.575509
LeftArm 105.139395 41.295176 -42.409146
LeftForeArm 10.767268 -0.000000 92.257379
LeftHand -15.118047 -0.000000 -7.187114
LeftHandThumb1 -26.253704 0.000000 33.147579
RightShoulder -11.038011 -69.571464 -19.675402
RightArm 46.761555 -17.871271 16.695645
RightForeArm 37.469768 -0.000000 115.952238
RightHand -2.088771 -0.000000 38.019634
RightHandThumb1 -24.326973 -0.000000 -32.862282
LeftUpLeg -29.034492 12.750202 -4.903445
LeftLeg 18.211250 -0.000000 -0.000000
LeftFoot -18.205304 12.067542 -15.670472
LeftToeBase 8.903270 -0.000000 -0.000000
RightUpLeg -33.635990 -3.092043 -11.087225
RightLeg 16.937275 -0.000000 -0.000000
RightFoot -10.418909 3.874834 19.361031
RightToeBase 12.721472 -0.000000 -0.000000
505
root 3.416740 35.937867 4.117991 -147.098133 -76.872599 173.984931
Spine -28.155441 -16.163598 0.187367
Head 50.298545 -12.536159 -13.357735
LeftShoulder 15.538981 -8.007334 32.603821
LeftArm 105.052409 41.281230 -42.499139
LeftForeArm 10.902700 -0.000000 92.299022
LeftHand -15.025123 -0.000000 -7.245565
LeftHandThumb1 -26.253704 0.000000 33.147579
RightShoulder -11.047466 -69.467202 -19.616563
RightArm 46.525326 -17.246442 17.243219
RightForeArm 38.314398 0.000000 115.871154
RightHand -2.002853 -0.000000 37.988161
RightHandThumb1 -24.326973 -0.000000 -32.862282
LeftUpLeg -29.077109 12.696815 -4.903123
LeftLeg 18.213407 -0.000000 -0.000000
LeftFoot -18.175042 12.059505 -15.665527
LeftToeBase 8.871837 -0.000000 -0.000000
RightUpLeg -33.636250 -3.126715 -11.089010
RightLeg 16.914283 -0.000000 -0.000000
RightFoot -10.432836 3.832958 19.381584
RightToeBase 12.740144 -0.000000 -0.000000
506
root 3.421401 35.939008 4.118917 -146.953431 -76.954567 173.879106
Spine -28.207872 -16.121133 0.185844
Head 50.316137 -12.593458 -13.370373
LeftShoulder 15.517117 -7.999865 32.604589
LeftArm 104.976627 41.259269 -42.582127
LeftForeArm 11.061185 -0.000000 92.353590
LeftHand -15.018438 -0.000000 -7.307188
LeftHandThumb1 -26.253704 0.000000 33.147579
RightShoulder -11.100429 -69.385425 -19.551694
RightArm 46.403398 -16.561595 17.754713
RightForeArm 39.455311 -0.000000 115.753100
RightHand -1.799590 -0.000000 37.897201
RightHandThumb1 -24.326973 -0.000000 -32.862282
LeftUpLeg -29.141021 12.646718 -4.904760
LeftLeg 18.223052 -0.000000 -0.000000
LeftFoot -18.133743 12.033635 -15.637143
LeftToeBase 8.841765 -0.000000 -0.000000
RightUpLeg -33.647197 -3.159380 -11.087301
RightLeg 16.892789 -0.000000 -0.000000
RightFoot -10.445885 3.773284 19.408297
RightToeBase 12.736209 -0.000000 -0.000000
507
root 3.427279 35.939568 4.119756 -146.837699 -77.016583 173.806288
Spine -28.264320 -16.070410 0.181048
Head 50.315162 -12.630245 -13.370483
LeftShoulder 15.492156 -7.954308 32.610650
LeftArm 104.907308 41.238497 -42.667592
LeftForeArm 11.200603 -0.000000 92.406642
LeftHand -14.986455 -0.000000 -7.413067
LeftHandThumb1 -26.253704 0.000000 33.147579
RightShoulder -11.144965 -69.214612 -19.496554
RightArm 46.310381 -16.016940 18.187860
RightForeArm 41.466383 -0.000000 115.682579
RightHand -1.473088 -0.000000 37.419313
RightHandThumb1 -24.326973 -0.000000 -32.862282
LeftUpLeg -29.203006 12.609727 -4.904539
LeftLeg 18.228215 -0.000000 -0.000000
LeftFoot -18.121036 11.991884 -15.644365
LeftToeBase 8.910685 -0.000000 -0.000000
RightUpLeg -33.671144 -3.173184 -11.089860
RightLeg 16.876034 -0.000000 -0.000000
RightFoot -10.469398 3.717731 19.412563
RightToeBase 12.750853 -0.000000 -0.000000
508
root 3.432470 35.938939 4.119535 -146.709666 -77.092770 173.699125
Spine -28.296814 -16.037843 0.174672
Head 50.307265 -12.652217 -13.391483
LeftShoulder 15.473481 -7.930436 32.622090
LeftArm 104.788577 41.260393 -42.795295
LeftForeArm 11.224969 -0.000000 92.477917
LeftHand -14.939558 0.000000 -7.566932
LeftHandThumb1 -26.253704 0.000000 33.147579
RightShoulder -11.092943 -69.028102 -19.562084
RightArm 46.301053 -15.496201 18.691486
RightForeArm 43.528299 0.000000 115.585314
RightHand -1.056608 -0.000000 37.292627
RightHandThumb1 -24.326973 -0.000000 -32.862282
LeftUpLeg -29.249391 12.565274 -4.900037
LeftLeg 18.243595 -0.000000 -0.000000
LeftFoot -18.109693 11.962930 -15.624695
LeftToeBase 8.944548 -0.000000 -0.000000
RightUpLeg -33.672243 -3.198534 -11.090987
RightLeg 16.867714 -0.000000 -0.000000
RightFoot -10.509011 3.665922 19.432732
RightToeBase 12.798043 -0.000000 -0.000000
509
root 3.438722 35.937916 4.119217 -146.593990 -77.158590 173.600594
Spine -28.324743 -16.007493 0.167917
Head 50.294111 -12.667086 -13.426466
LeftShoulder 15.453149 -7.919293 32.642530
LeftArm 104.702655 41.279650 -42.867229
LeftForeArm 11.412742 -0.000000 92.545273
LeftHand -14.944784 -0.000000 -7.576610
LeftHandThumb1 -26.253704 0.000000 33.147579
RightShoulder -10.938939 -68.835801 -19.742456
RightArm 46.364114 -15.082694 19.202796
RightForeArm 45.769839 -0.000000 115.541644
RightHand -0.661990 -0.000000 37.020241
RightHandThumb1 -24.326973 -0.000000 -32.862282
LeftUpLeg -29.291547 12.527369 -4.899426
LeftLeg 18.256332 -0.000000 -0.000000
LeftFoot -18.092981 11.941219 -15.606587
LeftToeBase 8.924998 -0.000000 -0.000000
RightUpLeg -33.679050 -3.222740 -11.090074
RightLeg 16.869157 -0.000000 -0.000000
RightFoot -10.546148 3.628892 19.452887
RightToeBase 12.837159 -0.000000 -0.000000
510
root 3.446839 35.936652 4.117305 -146.469846 -77.243427 173.524378
Spine -28.393469 -16.013133 0.203366
Head 50.265405 -12.667057 -13.495484
LeftShoulder 15.411362 -7.888050 32.674160
LeftArm 104.619340 41.295218 -42.951861
LeftForeArm 11.510583 0.000000 92.609345
LeftHand -15.009435 -0.000000 -7.642220
LeftHandThumb1 -26.253704 0.000000 33.147579
RightShoulder -10.736937 -68.636097 -19.988648
RightArm 46.519629 -14.720030 19.628484
RightForeArm 48.251427 -0.000000 115.597824
RightHand -0.420390 -0.000000 36.468856
RightHandThumb1 -24.326973 -0.000000 -32.862282
LeftUpLeg -29.372690 12.474321 -4.885897
LeftLeg 18.280406 -0.000000 -0.000000
LeftFoot -18.092810 11.918697 -15.599335
LeftToeBase 8.916275 -0.000000 -0.000000
RightUpLeg -33.710956 -3.228998 -11.089243
RightLeg 16.866282 -0.000000 -0.000000
RightFoot -10.589946 3.568998 19.489184
RightToeBase 12.847676 -0.000000 -0.000000
